{
  "accessors": [
    {
      "bufferView": 2,
      "componentType": 5126,
      "count": 437,
      "max": [
        1.7623000144958496,
        0.12740999460220337,
        1.4156800508499146
      ],
      "min": [
        -0.32660996913909912,
        -0.12740999460220337,
        -2.3841858265427618e-08
      ],
      "type": "VEC3"
    },
    {
      "bufferView": 2,
      "byteOffset": 5244,
      "componentType": 5126,
      "count": 437,
      "max": [
        1,
        1,
        1
      ],
      "min": [
        -1,
        -1,
        -1
      ],
      "type": "VEC3"
    },
    {
      "bufferView": 1,
      "componentType": 5125,
      "count": 1608,
      "max": [
        436
      ],
      "min": [
        0
      ],
      "type": "SCALAR"
    },
    {
      "bufferView": 2,
      "byteOffset": 10488,
      "componentType": 5126,
      "count": 335,
      "max": [
        1.7146600484848022,
        0.14271000027656555,
        1.6199400424957275
      ],
      "min": [
        -0.24848999083042145,
        -0.14271000027656555,
        0.76394003629684448
      ],
      "type": "VEC3"
    },
    {
      "bufferView": 2,
      "byteOffset": 14508,
      "componentType": 5126,
      "count": 335,
      "max": [
        1,
        1,
        1
      ],
      "min": [
        -1,
        -1,
        -1
      ],
      "type": "VEC3"
    },
    {
      "bufferView": 1,
      "byteOffset": 6432,
      "componentType": 5125,
      "count": 1032,
      "max": [
        334
      ],
      "min": [
        0
      ],
      "type": "SCALAR"
    },
    {
      "bufferView": 4,
      "componentType": 5126,
      "count": 4,
      "max": [
        1,
        1,
        0,
        0,
        0,
        1,
        0,
        0,
        0,
        0.98659998178482056,
        1,
        0,
        1.279710054397583,
        0.61974000930786133,
        0,
        1
      ],
      "min": [
        -0.85386002063751221,
        0,
        0,
        0,
        0,
        0,
        -1,
        0,
        -1,
        -0.85386002063751221,
        -0,
        0,
        0,
        -0.090439997613430023,
        0,
        1
      ],
      "type": "MAT4"
    },
    {
      "bufferView": 0,
      "componentType": 5123,
      "count": 437,
      "max": [
        1,
        1,
        1,
        1
      ],
      "min": [
        1,
        1,
        1,
        1
      ],
      "type": "VEC4"
    },
    {
      "bufferView": 3,
      "componentType": 5126,
      "count": 437,
      "max": [
        1,
        0,
        0,
        0
      ],
      "min": [
        1,
        0,
        0,
        0
      ],
      "type": "VEC4"
    },
    {
      "bufferView": 0,
      "byteOffset": 3496,
      "componentType": 5123,
      "count": 335,
      "max": [
        1,
        3,
        1,
        1
      ],
      "min": [
        1,
        2,
        1,
        1
      ],
      "type": "VEC4"
    },
    {
      "bufferView": 3,
      "byteOffset": 6992,
      "componentType": 5126,
      "count": 335,
      "max": [
        0.5,
        0.5,
        0,
        0
      ],
      "min": [
        0.5,
        0.5,
        0,
        0
      ],
      "type": "VEC4"
    },
    {
      "bufferView": 5,
      "componentType": 5126,
      "count": 1,
      "max": [
        0
      ],
      "min": [
        0
      ],
      "type": "SCALAR"
    },
    {
      "bufferView": 7,
      "componentType": 5126,
      "count": 1,
      "max": [
        0.704734206199646,
        0.057876501232385635,
        -0.057876501232385635,
        0.704734206199646
      ],
      "min": [
        0.704734206199646,
        0.057876501232385635,
        -0.057876501232385635,
        0.704734206199646
      ],
      "type": "VEC4"
    },
    {
      "bufferView": 5,
      "byteOffset": 4,
      "componentType": 5126,
      "count": 5,
      "max": [
        0.16666999459266663
      ],
      "min": [
        0
      ],
      "type": "SCALAR"
    },
    {
      "bufferView": 6,
      "componentType": 5126,
      "count": 5,
      "max": [
        -0.10722000151872635,
        1.19923996925354,
        -0
      ],
      "min": [
        -0.80136364698410034,
        1.0844558477401733,
        -0
      ],
      "type": "VEC3"
    },
    {
      "bufferView": 5,
      "byteOffset": 24,
      "componentType": 5126,
      "count": 1,
      "max": [
        0
      ],
      "min": [
        0
      ],
      "type": "SCALAR"
    },
    {
      "bufferView": 7,
      "byteOffset": 16,
      "componentType": 5126,
      "count": 1,
      "max": [
        0,
        0,
        -0.64669156074523926,
        0.76275157928466797
      ],
      "min": [
        0,
        0,
        -0.64669156074523926,
        0.76275157928466797
      ],
      "type": "VEC4"
    },
    {
      "bufferView": 5,
      "byteOffset": 28,
      "componentType": 5126,
      "count": 5,
      "max": [
        0.16666999459266663
      ],
      "min": [
        0
      ],
      "type": "SCALAR"
    },
    {
      "bufferView": 7,
      "byteOffset": 32,
      "componentType": 5126,
      "count": 5,
      "max": [
        0,
        0,
        0.99558663368225098,
        -0.093822777271270752
      ],
      "min": [
        0,
        0,
        0.93741732835769653,
        -0.34820786118507385
      ],
      "type": "VEC4"
    },
    {
      "bufferView": 5,
      "byteOffset": 48,
      "componentType": 5126,
      "count": 1,
      "max": [
        0
      ],
      "min": [
        0
      ],
      "type": "SCALAR"
    },
    {
      "bufferView": 7,
      "byteOffset": 112,
      "componentType": 5126,
      "count": 1,
      "max": [
        0,
        0,
        0,
        1
      ],
      "min": [
        0,
        0,
        0,
        1
      ],
      "type": "VEC4"
    }
  ],
  "animations": [
    {
      "channels": [
        {
          "sampler": 0,
          "target": {
            "node": 5,
            "path": "rotation"
          }
        },
        {
          "sampler": 1,
          "target": {
            "node": 6,
            "path": "translation"
          }
        },
        {
          "sampler": 2,
          "target": {
            "node": 6,
            "path": "rotation"
          }
        },
        {
          "sampler": 3,
          "target": {
            "node": 7,
            "path": "rotation"
          }
        },
        {
          "sampler": 4,
          "target": {
            "node": 3,
            "path": "rotation"
          }
        }
      ],
      "name": "Shoot",
      "samplers": [
        {
          "input": 11,
          "interpolation": "LINEAR",
          "output": 12
        },
        {
          "input": 13,
          "interpolation": "LINEAR",
          "output": 14
        },
        {
          "input": 15,
          "interpolation": "LINEAR",
          "output": 16
        },
        {
          "input": 17,
          "interpolation": "LINEAR",
          "output": 18
        },
        {
          "input": 19,
          "interpolation": "LINEAR",
          "output": 20
        }
      ]
    }
  ],
  "asset": {
    "extras": {
      "author": "Deved-Games (https://sketchfab.com/Deved-Games)",
      "license": "CC-BY-4.0 (http://creativecommons.org/licenses/by/4.0/)",
      "source": "https://sketchfab.com/models/e79ca9326ca542ceacfe690a7da8895c",
      "title": "Pistol"
    },
    "generator": "Sketchfab-3.18.7",
    "version": "2.0"
  },
  "bufferViews": [
    {
      "buffer": 0,
      "byteLength": 6176,
      "byteOffset": 0,
      "byteStride": 8,
      "name": "shortBufferViews",
      "target": 34962
    },
    {
      "buffer": 0,
      "byteLength": 10560,
      "byteOffset": 6176,
      "name": "floatBufferViews",
      "target": 34963
    },
    {
      "buffer": 0,
      "byteLength": 18528,
      "byteOffset": 16736,
      "byteStride": 12,
      "name": "floatBufferViews",
      "target": 34962
    },
    {
      "buffer": 0,
      "byteLength": 12352,
      "byteOffset": 35264,
      "byteStride": 16,
      "name": "floatBufferViews",
      "target": 34962
    },
    {
      "buffer": 0,
      "byteLength": 256,
      "byteOffset": 47616,
      "byteStride": 64,
      "name": "floatBufferViews"
    },
    {
      "buffer": 0,
      "byteLength": 52,
      "byteOffset": 47872,
      "name": "floatBufferViews"
    },
    {
      "buffer": 0,
      "byteLength": 60,
      "byteOffset": 47924,
      "byteStride": 12,
      "name": "floatBufferViews"
    },
    {
      "buffer": 0,
      "byteLength": 128,
      "byteOffset": 47984,
      "byteStride": 16,
      "name": "floatBufferViews"
    }
  ],
  "buffers": [
    {
      "byteLength": 48112,
      "uri": "scene.bin"
    }
  ],
  "materials": [
    {
      "doubleSided": true,
      "emissiveFactor": [
        0,
        0,
        0
      ],
      "name": "Material.001",
      "pbrMetallicRoughness": {
        "baseColorFactor": [
          0.22025705870000001,
          0.22025705870000001,
          0.22025705870000001,
          1
        ],
        "metallicFactor": 0,
        "roughnessFactor": 0.59999999999999998
      }
    },
    {
      "doubleSided": true,
      "emissiveFactor": [
        0,
        0,
        0
      ],
      "name": "Material",
      "pbrMetallicRoughness": {
        "baseColorFactor": [
          0.0835313424,
          0.0835313424,
          0.0835313424,
          1
        ],
        "metallicFactor": 0,
        "roughnessFactor": 0.59999999999999998
      }
    }
  ],
  "meshes": [
    {
      "name": "Body",
      "primitives": [
        {
          "attributes": {
            "JOINTS_0": 7,
            "NORMAL": 1,
            "POSITION": 0,
            "WEIGHTS_0": 8
          },
          "indices": 2,
          "material": 0,
          "mode": 4
        }
      ]
    },
    {
      "name": "Body",
      "primitives": [
        {
          "attributes": {
            "JOINTS_0": 9,
            "NORMAL": 4,
            "POSITION": 3,
            "WEIGHTS_0": 10
          },
          "indices": 5,
          "material": 1,
          "mode": 4
        }
      ]
    }
  ],
  "nodes": [
    {
      "children": [
        1
      ],
      "name": "RootNode (gltf orientation matrix)",
      "rotation": [
        -0.70710678118654746,
        -0,
        -0,
        0.70710678118654757
      ]
    },
    {
      "children": [
        2
      ],
      "name": "RootNode (model correction matrix)"
    },
    {
      "children": [
        3
      ],
      "name": "Root"
    },
    {
      "children": [
        4,
        9,
        10,
        8
      ],
      "name": "Armature",
      "translation": [
        -0.45653998851776123,
        0,
        0
      ]
    },
    {
      "children": [
        5
      ],
      "name": "Armature_rootJoint"
    },
    {
      "children": [
        6,
        7
      ],
      "name": "Handle_Armature",
      "rotation": [
        0.704734206199646,
        0.057876501232385635,
        -0.057876501232385635,
        0.704734206199646
      ],
      "scale": [
        0.99999874830245972,
        0.99999874830245972,
        1
      ],
      "translation": [
        0,
        0,
        0.079089999198913574
      ]
    },
    {
      "name": "Slider_Armature",
      "rotation": [
        0,
        0,
        -0.64669162034988403,
        0.76275169849395752
      ],
      "scale": [
        0.99999994039535522,
        0.99999994039535522,
        1
      ],
      "translation": [
        -0.10722000151872635,
        1.19923996925354,
        0
      ]
    },
    {
      "name": "Trigger_Armature",
      "rotation": [
        0,
        0,
        0.93741744756698608,
        -0.34820789098739624
      ],
      "scale": [
        0.9999966025352478,
        0.9999966025352478,
        1
      ],
      "translation": [
        0.3919999897480011,
        1.0668200254440308,
        0
      ]
    },
    {
      "matrix": [
        1,
        0,
        0,
        0,
        0,
        1,
        0,
        0,
        0,
        0,
        1,
        0,
        0.55654000000000003,
        0,
        1.1000000000000001,
        1
      ],
      "name": "Body"
    },
    {
      "mesh": 0,
      "name": "Body_0",
      "skin": 0
    },
    {
      "mesh": 1,
      "name": "Body_1",
      "skin": 0
    }
  ],
  "scene": 0,
  "scenes": [
    {
      "name": "OSG_Scene",
      "nodes": [
        0
      ]
    }
  ],
  "skins": [
    {
      "inverseBindMatrices": 6,
      "joints": [
        4,
        5,
        6,
        7
      ],
      "skeleton": 4
    }
  ]
}

